<svg width="62" height="62" viewBox="0 0 62 62" fill="none" xmlns="http://www.w3.org/2000/svg">
<path d="M31 5.16666C25.5189 5.16666 20.2622 7.34403 16.3865 11.2198C12.5107 15.0955 10.3333 20.3522 10.3333 25.8333C10.3333 39.7833 28.5458 55.5417 29.3208 56.2133C29.7888 56.6136 30.3843 56.8335 31 56.8335C31.6157 56.8335 32.2112 56.6136 32.6792 56.2133C33.5833 55.5417 51.6667 39.7833 51.6667 25.8333C51.6667 20.3522 49.4893 15.0955 45.6135 11.2198C41.7378 7.34403 36.4811 5.16666 31 5.16666V5.16666ZM31 50.7625C25.4975 45.5958 15.5 34.4617 15.5 25.8333C15.5 21.7225 17.133 17.78 20.0398 14.8732C22.9467 11.9664 26.8891 10.3333 31 10.3333C35.1109 10.3333 39.0533 11.9664 41.9602 14.8732C44.867 17.78 46.5 21.7225 46.5 25.8333C46.5 34.4617 36.5025 45.6217 31 50.7625ZM31 15.5C28.9563 15.5 26.9584 16.106 25.2591 17.2415C23.5598 18.3769 22.2354 19.9908 21.4532 21.8789C20.6711 23.7671 20.4665 25.8448 20.8652 27.8493C21.2639 29.8537 22.2481 31.695 23.6932 33.1401C25.1384 34.5852 26.9796 35.5694 28.9841 35.9681C30.9885 36.3668 33.0662 36.1622 34.9544 35.3801C36.8426 34.598 38.4564 33.2735 39.5919 31.5742C40.7273 29.8749 41.3333 27.8771 41.3333 25.8333C41.3333 23.0928 40.2446 20.4644 38.3068 18.5266C36.3689 16.5887 33.7406 15.5 31 15.5ZM31 31C29.9781 31 28.9792 30.697 28.1296 30.1292C27.2799 29.5615 26.6177 28.7546 26.2266 27.8105C25.8356 26.8664 25.7333 25.8276 25.9326 24.8254C26.132 23.8231 26.624 22.9025 27.3466 22.1799C28.0692 21.4574 28.9898 20.9653 29.992 20.7659C30.9943 20.5666 32.0331 20.6689 32.9772 21.0599C33.9213 21.451 34.7282 22.1132 35.2959 22.9629C35.8636 23.8125 36.1667 24.8115 36.1667 25.8333C36.1667 27.2036 35.6223 28.5178 34.6534 29.4867C33.6844 30.4556 32.3703 31 31 31Z" fill="white"/>
</svg>
