<svg width="187" height="187" viewBox="0 0 187 187" fill="none" xmlns="http://www.w3.org/2000/svg">
<path d="M168.612 101.292C167.487 100.362 166.124 99.7669 164.677 99.5741C163.231 99.3812 161.759 99.5984 160.43 100.201C152.191 103.971 143.233 105.912 134.172 105.889C117.411 105.869 101.338 99.2226 89.4572 87.4C77.5762 75.5774 70.8511 59.537 70.7483 42.7763C70.7838 37.5234 71.4376 32.293 72.6962 27.193C72.9633 25.8336 72.8631 24.4277 72.406 23.1199C71.9489 21.8122 71.1514 20.6499 70.0957 19.753C69.0399 18.856 67.7642 18.2567 66.3997 18.0168C65.0353 17.777 63.6316 17.9052 62.3333 18.3884C50.1185 23.8808 39.5004 32.3881 31.4764 43.1112C23.4525 53.8343 18.2861 66.4211 16.4626 79.6892C14.6391 92.9573 16.2184 106.471 21.052 118.961C25.8857 131.452 33.8151 142.508 44.0953 151.092C54.3756 159.676 66.6692 165.506 79.8213 168.034C92.9733 170.562 106.552 169.705 119.282 165.544C132.012 161.382 143.475 154.053 152.595 144.245C161.715 134.437 168.191 122.472 171.417 109.473C171.809 107.985 171.753 106.413 171.253 104.957C170.754 103.501 169.835 102.226 168.612 101.292V101.292ZM94.5908 153.418C81.5145 153.326 68.7864 149.194 58.1491 141.588C47.5119 133.982 39.4855 123.275 35.1691 110.931C30.8526 98.5873 30.4571 85.2112 34.0366 72.634C37.6161 60.0568 44.9957 48.8935 55.165 40.6726V42.7763C55.1856 63.7241 63.5162 83.808 78.3285 98.6203C93.1408 113.433 113.225 121.763 134.172 121.784C139.672 121.804 145.159 121.229 150.535 120.07C145.158 130.242 137.106 138.753 127.247 144.685C117.388 150.616 106.097 153.744 94.5908 153.73V153.418Z" fill="#219EBC"/>
</svg>
