<svg width="187" height="187" viewBox="0 0 187 187" fill="none" xmlns="http://www.w3.org/2000/svg">
<path d="M90.2275 128.562H80.41L87.1108 116.875C87.6746 115.988 88.0531 114.996 88.2237 113.959C88.3942 112.923 88.3533 111.862 88.1032 110.841C87.8532 109.821 87.3993 108.861 86.7689 108.02C86.1384 107.18 85.3444 106.475 84.4346 105.949C83.5248 105.423 82.518 105.087 81.4748 104.96C80.4317 104.833 79.3736 104.919 78.3644 105.212C77.3551 105.505 76.4156 105.998 75.6022 106.664C74.7888 107.329 74.1183 108.152 73.6312 109.083L60.1517 132.458C59.4697 133.639 59.1098 134.979 59.1077 136.342C59.1056 137.706 59.4615 139.047 60.1398 140.23C60.8182 141.413 61.7951 142.397 62.9731 143.084C64.151 143.772 65.4887 144.138 66.8525 144.146H76.7479L70.125 155.833C69.0917 157.631 68.815 159.766 69.3557 161.768C69.8963 163.77 71.2101 165.475 73.0079 166.508C74.8057 167.541 76.9404 167.818 78.9423 167.277C80.9441 166.737 82.6492 165.423 83.6825 163.625L97.1621 140.25C97.8459 139.065 98.2059 137.722 98.2059 136.354C98.2059 134.986 97.8459 133.643 97.1621 132.458C96.4626 131.246 95.4496 130.244 94.2293 129.559C93.0091 128.873 91.6267 128.529 90.2275 128.562V128.562ZM169.079 58.9829C168.141 58.0609 166.984 57.3916 165.717 57.0373C164.45 56.6831 163.114 56.6555 161.833 56.957C160.145 57.3428 158.422 57.5517 156.69 57.5804C150.491 57.5804 144.545 55.1177 140.162 50.734C135.778 46.3503 133.315 40.4048 133.315 34.2054C133.338 32.4995 133.547 30.8012 133.939 29.1408C134.248 27.8546 134.225 26.5108 133.872 25.236C133.518 23.9612 132.846 22.7973 131.919 21.8541C130.991 20.9109 129.839 20.2194 128.57 19.8448C127.301 19.4702 125.958 19.4248 124.667 19.7129C116.912 21.425 109.878 25.4986 104.534 31.3731C99.1897 37.2475 95.7976 44.634 94.8246 52.5158C90.5919 51.3063 86.2145 50.6772 81.8125 50.6458C70.5836 50.6394 59.7275 54.6749 51.2292 62.0143C42.7309 69.3537 37.1582 79.5068 35.53 90.617C30.0112 92.1283 25.1098 95.3419 21.5234 99.8004C17.937 104.259 15.8485 109.735 15.555 115.45C15.2615 121.164 16.778 126.825 19.8888 131.628C22.9995 136.43 27.5459 140.129 32.8808 142.198C33.849 142.658 34.9017 142.913 35.973 142.948C37.0444 142.982 38.1113 142.796 39.1072 142.399C40.103 142.003 41.0064 141.405 41.7607 140.643C42.515 139.882 43.104 138.973 43.491 137.973C43.8779 136.973 44.0544 135.905 44.0095 134.834C43.9646 133.763 43.6992 132.713 43.2299 131.749C42.7606 130.785 42.0975 129.929 41.282 129.233C40.4666 128.537 39.5164 128.017 38.4908 127.705C35.9807 126.687 33.9021 124.829 32.6105 122.448C31.3189 120.067 30.8945 117.311 31.4098 114.652C31.9251 111.992 33.3481 109.594 35.4356 107.868C37.5231 106.142 40.1454 105.194 42.8542 105.187C44.9206 105.187 46.9025 104.367 48.3637 102.905C49.8249 101.444 50.6458 99.4623 50.6458 97.3958C50.6458 89.1299 53.9294 81.2025 59.7743 75.3576C65.6192 69.5127 73.5466 66.2291 81.8125 66.2291C87.8586 66.2243 93.7702 68.014 98.7983 71.3716V71.3716C104.462 75.0973 108.757 80.5683 111.031 86.955C111.477 88.2939 112.277 89.4867 113.348 90.4061C114.418 91.3256 115.718 91.9371 117.109 92.1754C121.14 92.8892 124.812 94.9447 127.528 98.0083C130.244 101.072 131.845 104.964 132.071 109.052C132.296 113.14 131.133 117.184 128.771 120.528C126.408 123.871 122.985 126.319 119.057 127.472C116.99 127.751 115.119 128.839 113.855 130.498C112.591 132.156 112.038 134.249 112.317 136.315C112.596 138.382 113.684 140.253 115.343 141.517C117.001 142.781 119.094 143.334 121.16 143.055C121.857 143.168 122.567 143.168 123.264 143.055C130.405 141.088 136.7 136.825 141.178 130.925C145.656 125.025 148.068 117.815 148.042 110.408C148.072 104.978 146.761 99.6252 144.224 94.8245C150.915 92.9559 156.976 89.3111 161.763 84.2767C166.551 79.2422 169.887 73.0059 171.417 66.2291C171.679 64.9222 171.603 63.5697 171.193 62.301C170.784 61.0323 170.056 59.8899 169.079 58.9829V58.9829ZM133.315 80.9554C132.226 81.0433 131.132 81.0433 130.043 80.9554C128.342 79.7897 126.543 78.773 124.667 77.9166C121.473 70.9185 116.602 64.8164 110.486 60.1516C110.486 59.2166 110.486 58.2037 110.486 57.2687C110.486 53.8924 111.217 50.5561 112.629 47.4894C114.041 44.4227 116.101 41.6983 118.667 39.5037C119.874 47.8163 123.734 55.5163 129.674 61.4558C135.613 67.3952 143.313 71.256 151.626 72.4625C149.402 75.1562 146.603 77.3174 143.435 78.7871C140.266 80.2568 136.808 80.9978 133.315 80.9554V80.9554Z" fill="#219EBC"/>
</svg>
