<svg width="187" height="187" viewBox="0 0 187 187" fill="none" xmlns="http://www.w3.org/2000/svg">
<path d="M169.079 70.6704C168.141 69.7485 166.984 69.0791 165.717 68.7249C164.45 68.3707 163.114 68.343 161.833 68.6446C160.146 69.0344 158.422 69.2433 156.69 69.268C150.491 69.268 144.545 66.8052 140.162 62.4216C135.778 58.0379 133.315 52.0924 133.315 45.8929C133.34 44.1615 133.549 42.4376 133.939 40.7504C134.24 39.4698 134.213 38.1337 133.858 36.8666C133.504 35.5995 132.835 34.4428 131.913 33.5042C131.006 32.5272 129.863 31.7993 128.595 31.3901C127.326 30.9808 125.974 30.9039 124.667 31.1667C116.912 32.8788 109.878 36.9525 104.534 42.8269C99.1898 48.7014 95.7977 56.0878 94.8246 63.9696C90.581 62.839 86.2039 62.2886 81.8125 62.3334C70.5836 62.327 59.7275 66.3624 51.2292 73.7019C42.7309 81.0413 37.1582 91.1944 35.53 102.305C29.1891 104.083 23.7058 108.095 20.0929 113.601C16.48 119.107 14.9815 125.735 15.8742 132.259C16.767 138.784 19.9907 144.766 24.9498 149.099C29.909 153.432 36.2687 155.824 42.8542 155.833H114.304C123.252 155.833 131.833 152.279 138.16 145.952C144.487 139.625 148.042 131.043 148.042 122.095C148.072 116.666 146.761 111.313 144.224 106.512C150.915 104.643 156.976 100.999 161.763 95.9642C166.551 90.9298 169.887 84.6935 171.417 77.9167C171.679 76.6098 171.603 75.2573 171.193 73.9886C170.784 72.7199 170.056 71.5774 169.079 70.6704V70.6704ZM114.537 140.25H42.8542C39.7544 140.25 36.7817 139.019 34.5899 136.827C32.398 134.635 31.1667 131.662 31.1667 128.563C31.1667 125.463 32.398 122.49 34.5899 120.298C36.7817 118.106 39.7544 116.875 42.8542 116.875C44.9206 116.875 46.9025 116.054 48.3637 114.593C49.8249 113.132 50.6458 111.15 50.6458 109.083C50.6651 103.482 52.1935 97.9894 55.0703 93.1832C57.9472 88.3771 62.0661 84.435 66.9939 81.7718C71.9216 79.1086 77.4761 77.8226 83.0729 78.0492C88.6697 78.2757 94.102 80.0064 98.7983 83.0592V83.0592C104.486 86.759 108.788 92.2389 111.031 98.6425C111.477 99.9814 112.277 101.174 113.348 102.094C114.418 103.013 115.718 103.625 117.109 103.863C119.498 104.047 121.828 104.7 123.964 105.785C126.101 106.869 128.004 108.364 129.563 110.183C131.122 112.003 132.307 114.112 133.052 116.39C133.796 118.668 134.084 121.07 133.9 123.459C133.716 125.848 133.063 128.178 131.978 130.315C130.894 132.451 129.399 134.354 127.579 135.913C125.76 137.472 123.651 138.658 121.373 139.402C119.095 140.146 116.693 140.434 114.304 140.25H114.537ZM133.549 92.643C132.46 92.7309 131.366 92.7309 130.277 92.643C128.479 91.6797 126.602 90.8716 124.667 90.2275C121.457 83.2395 116.589 77.1411 110.486 72.4625C110.486 71.5275 110.486 70.5146 110.486 69.5796C110.486 66.2033 111.217 62.867 112.629 59.8003C114.041 56.7336 116.101 54.0092 118.667 51.8146C119.874 60.1272 123.734 67.8272 129.674 73.7667C135.613 79.7061 143.313 83.5669 151.626 84.7734C149.342 87.3535 146.517 89.3969 143.351 90.7574C140.186 92.1179 136.759 92.7618 133.315 92.643H133.549Z" fill="#219EBC"/>
</svg>
