<svg width="187" height="187" viewBox="0 0 187 187" fill="none" xmlns="http://www.w3.org/2000/svg">
<path d="M66.2291 109.083C64.1627 109.083 62.1808 109.904 60.7196 111.365C59.2584 112.827 58.4375 114.809 58.4375 116.875V163.625C58.4375 165.691 59.2584 167.673 60.7196 169.135C62.1808 170.596 64.1627 171.417 66.2291 171.417C68.2956 171.417 70.2775 170.596 71.7387 169.135C73.1999 167.673 74.0208 165.691 74.0208 163.625V116.875C74.0208 114.809 73.1999 112.827 71.7387 111.365C70.2775 109.904 68.2956 109.083 66.2291 109.083ZM97.3958 101.292C95.3293 101.292 93.3475 102.113 91.8863 103.574C90.4251 105.035 89.6041 107.017 89.6041 109.083V155.833C89.6041 157.9 90.4251 159.882 91.8863 161.343C93.3475 162.804 95.3293 163.625 97.3958 163.625C99.4623 163.625 101.444 162.804 102.905 161.343C104.367 159.882 105.187 157.9 105.187 155.833V109.083C105.187 107.017 104.367 105.035 102.905 103.574C101.444 102.113 99.4623 101.292 97.3958 101.292ZM169.079 55.0871C168.133 54.1523 166.963 53.4753 165.681 53.1207C164.399 52.7661 163.047 52.7456 161.755 53.0612C160.095 53.4532 158.396 53.6622 156.69 53.6846C150.491 53.6846 144.545 51.2219 140.162 46.8382C135.778 42.4545 133.315 36.509 133.315 30.3096C133.34 28.5781 133.549 26.8543 133.939 25.1671C134.24 23.8864 134.213 22.5503 133.858 21.2832C133.504 20.0161 132.835 18.8594 131.913 17.9208C131.006 16.9439 129.863 16.2159 128.595 15.8067C127.326 15.3974 125.974 15.3205 124.667 15.5833C116.912 17.2955 109.878 21.3691 104.534 27.2435C99.1897 33.118 95.7976 40.5044 94.8246 48.3862C90.581 47.2557 86.2038 46.7052 81.8125 46.75C70.5836 46.7436 59.7275 50.7791 51.2292 58.1185C42.7309 65.458 37.1582 75.611 35.53 86.7212C30.1041 88.2321 25.2792 91.386 21.718 95.7495C18.1567 100.113 16.0339 105.472 15.6411 111.091C15.2483 116.709 16.6048 122.312 19.5243 127.128C22.4438 131.945 26.783 135.739 31.9458 137.99C32.9388 138.384 33.9946 138.595 35.0625 138.614C36.8639 138.628 38.6147 138.018 40.017 136.888C41.4194 135.757 42.3865 134.175 42.7539 132.411C43.1214 130.648 42.8663 128.811 42.0322 127.215C41.1981 125.618 39.8365 124.36 38.1791 123.654C36.0886 122.763 34.3077 121.275 33.0601 119.376C31.8125 117.477 31.1538 115.251 31.1666 112.979C31.1666 109.879 32.398 106.907 34.5898 104.715C36.7817 102.523 39.7544 101.292 42.8541 101.292C44.9206 101.292 46.9025 100.471 48.3637 99.0095C49.8249 97.5483 50.6458 95.5665 50.6458 93.5C50.6458 85.2341 53.9294 77.3067 59.7743 71.4618C65.6192 65.6169 73.5466 62.3333 81.8125 62.3333C87.8328 62.3392 93.7163 64.1287 98.7204 67.4758V67.4758C104.408 71.1757 108.71 76.6556 110.953 83.0592C111.399 84.3981 112.199 85.5909 113.27 86.5103C114.34 87.4298 115.64 88.0413 117.031 88.2796C120.781 88.6716 124.315 90.2267 127.138 92.7271C129.96 95.2274 131.93 98.5479 132.772 102.224C133.614 105.899 133.285 109.746 131.831 113.226C130.378 116.705 127.873 119.643 124.667 121.628C123.807 122.191 123.067 122.917 122.488 123.766C121.909 124.615 121.504 125.569 121.294 126.575C121.084 127.581 121.074 128.618 121.265 129.627C121.456 130.637 121.844 131.599 122.407 132.458C122.97 133.318 123.696 134.058 124.545 134.637C125.394 135.215 126.349 135.621 127.354 135.831C128.36 136.041 129.397 136.051 130.407 135.86C131.416 135.669 132.378 135.281 133.237 134.718C137.842 131.604 141.604 127.399 144.187 122.477C146.771 117.555 148.095 112.07 148.042 106.512C148.072 101.082 146.761 95.7294 144.224 90.9287C150.915 89.0601 156.976 85.4153 161.763 80.3809C166.551 75.3464 169.887 69.1101 171.417 62.3333C171.679 61.0264 171.603 59.6739 171.193 58.4052C170.784 57.1365 170.056 55.9941 169.079 55.0871V55.0871ZM133.315 77.0596C132.226 77.1439 131.132 77.1439 130.043 77.0596C128.331 76.0012 126.532 75.0889 124.667 74.3325C121.457 67.3444 116.589 61.246 110.486 56.5675C110.486 55.6325 110.486 54.6196 110.486 53.6846C110.486 50.3083 111.217 46.972 112.629 43.9053C114.041 40.8385 116.101 38.1142 118.667 35.9196C119.874 44.2321 123.734 51.9322 129.674 57.8716C135.613 63.8111 143.313 67.6719 151.626 68.8783C149.372 71.5152 146.56 73.6174 143.393 75.0324C140.226 76.4475 136.783 77.1399 133.315 77.0596Z" fill="#219EBC"/>
</svg>
