<svg width="187" height="187" viewBox="0 0 187 187" fill="none" xmlns="http://www.w3.org/2000/svg">
<path d="M38.9583 93.5C38.9583 91.4335 38.1374 89.4517 36.6762 87.9905C35.215 86.5292 33.2331 85.7083 31.1666 85.7083H23.375C21.3085 85.7083 19.3267 86.5292 17.8654 87.9905C16.4042 89.4517 15.5833 91.4335 15.5833 93.5C15.5833 95.5665 16.4042 97.5483 17.8654 99.0095C19.3267 100.471 21.3085 101.292 23.375 101.292H31.1666C33.2331 101.292 35.215 100.471 36.6762 99.0095C38.1374 97.5483 38.9583 95.5665 38.9583 93.5ZM43.945 132.458L38.4129 137.99C36.9617 139.45 36.1471 141.425 36.1471 143.484C36.1471 145.542 36.9617 147.517 38.4129 148.977C39.8728 150.428 41.8476 151.242 43.906 151.242C45.9645 151.242 47.9393 150.428 49.3991 148.977L54.9312 143.445C56.2077 141.954 56.8747 140.037 56.799 138.076C56.7232 136.115 55.9103 134.255 54.5227 132.867C53.135 131.479 51.2748 130.666 49.3139 130.591C47.3529 130.515 45.4355 131.182 43.945 132.458V132.458ZM93.5 38.9583C95.5665 38.9583 97.5483 38.1374 99.0095 36.6762C100.471 35.215 101.292 33.2331 101.292 31.1667V23.375C101.292 21.3085 100.471 19.3267 99.0095 17.8655C97.5483 16.4042 95.5665 15.5833 93.5 15.5833C91.4335 15.5833 89.4517 16.4042 87.9904 17.8655C86.5292 19.3267 85.7083 21.3085 85.7083 23.375V31.1667C85.7083 33.2331 86.5292 35.215 87.9904 36.6762C89.4517 38.1374 91.4335 38.9583 93.5 38.9583ZM137.601 57.1908C139.645 57.1822 141.604 56.3707 143.055 54.9312L148.587 49.3992C149.403 48.7007 150.065 47.8411 150.533 46.8744C151.001 45.9078 151.263 44.8548 151.305 43.7818C151.346 42.7087 151.165 41.6387 150.774 40.6388C150.382 39.6389 149.788 38.7308 149.028 37.9715C148.269 37.2122 147.361 36.618 146.361 36.2263C145.361 35.8346 144.291 35.6537 143.218 35.6952C142.145 35.7366 141.092 35.9995 140.126 36.4671C139.159 36.9348 138.299 37.5973 137.601 38.4129L132.458 43.945C131.007 45.4049 130.193 47.3797 130.193 49.4381C130.193 51.4966 131.007 53.4714 132.458 54.9312C133.832 56.2976 135.665 57.1032 137.601 57.1908V57.1908ZM44.1008 54.9312C45.5521 56.3707 47.5109 57.1822 49.555 57.1908C50.5804 57.1968 51.5969 57.0002 52.5463 56.6125C53.4956 56.2247 54.359 55.6534 55.0871 54.9312C56.5383 53.4714 57.3528 51.4966 57.3528 49.4381C57.3528 47.3797 56.5383 45.4049 55.0871 43.945L49.555 38.4129C48.8336 37.6813 47.9752 37.099 47.0288 36.6991C46.0824 36.2993 45.0664 36.0897 44.039 36.0825C43.0116 36.0753 41.9929 36.2705 41.0409 36.6569C40.0889 37.0434 39.2224 37.6136 38.4908 38.335C37.7592 39.0564 37.1769 39.9148 36.777 40.8612C36.3772 41.8076 36.1676 42.8235 36.1604 43.8509C36.1458 45.9259 36.956 47.9216 38.4129 49.3992L44.1008 54.9312ZM163.625 85.7083H155.833C153.767 85.7083 151.785 86.5292 150.324 87.9905C148.863 89.4517 148.042 91.4335 148.042 93.5C148.042 95.5665 148.863 97.5483 150.324 99.0095C151.785 100.471 153.767 101.292 155.833 101.292H163.625C165.691 101.292 167.673 100.471 169.135 99.0095C170.596 97.5483 171.417 95.5665 171.417 93.5C171.417 91.4335 170.596 89.4517 169.135 87.9905C167.673 86.5292 165.691 85.7083 163.625 85.7083ZM143.055 132.458C141.575 131.635 139.866 131.316 138.189 131.551C136.511 131.785 134.956 132.56 133.758 133.758C132.56 134.956 131.785 136.511 131.551 138.189C131.316 139.866 131.635 141.575 132.458 143.055L137.99 148.587C139.45 150.038 141.425 150.853 143.484 150.853C145.542 150.853 147.517 150.038 148.977 148.587C150.428 147.127 151.242 145.152 151.242 143.094C151.242 141.036 150.428 139.061 148.977 137.601L143.055 132.458ZM93.5 50.6458C85.0242 50.6458 76.7388 53.1592 69.6915 57.8681C62.6441 62.5769 57.1514 69.2698 53.9079 77.1004C50.6644 84.931 49.8157 93.5475 51.4692 101.86C53.1228 110.173 57.2042 117.809 63.1975 123.802C69.1908 129.796 76.8267 133.877 85.1395 135.531C93.4524 137.184 102.069 136.336 109.9 133.092C117.73 129.849 124.423 124.356 129.132 117.308C133.841 110.261 136.354 101.976 136.354 93.5C136.334 82.1407 131.812 71.2525 123.78 63.2203C115.747 55.188 104.859 50.6664 93.5 50.6458ZM93.5 120.771C88.1063 120.771 82.8338 119.171 78.3491 116.175C73.8645 113.178 70.3691 108.919 68.305 103.936C66.2409 98.953 65.7009 93.4697 66.7531 88.1797C67.8054 82.8897 70.4027 78.0305 74.2166 74.2166C78.0305 70.4027 82.8897 67.8054 88.1797 66.7532C93.4697 65.7009 98.953 66.241 103.936 68.305C108.919 70.3691 113.178 73.8645 116.175 78.3491C119.171 82.8338 120.771 88.1063 120.771 93.5C120.771 100.733 117.898 107.669 112.783 112.783C107.669 117.898 100.733 120.771 93.5 120.771V120.771ZM93.5 148.042C91.4335 148.042 89.4517 148.863 87.9904 150.324C86.5292 151.785 85.7083 153.767 85.7083 155.833V163.625C85.7083 165.691 86.5292 167.673 87.9904 169.135C89.4517 170.596 91.4335 171.417 93.5 171.417C95.5665 171.417 97.5483 170.596 99.0095 169.135C100.471 167.673 101.292 165.691 101.292 163.625V155.833C101.292 153.767 100.471 151.785 99.0095 150.324C97.5483 148.863 95.5665 148.042 93.5 148.042Z" fill="#FFB703"/>
</svg>
