<svg width="187" height="187" viewBox="0 0 187 187" fill="none" xmlns="http://www.w3.org/2000/svg">
<path d="M143.522 71.7613C138.756 60.8203 130.533 51.7444 120.114 45.9253C109.695 40.1062 97.655 37.8649 85.8398 39.5452C74.0247 41.2255 63.0868 46.7346 54.7031 55.2278C46.3194 63.721 40.9527 74.7295 39.4258 86.5654C31.9971 88.3444 25.4804 92.7897 21.1133 99.0569C16.7462 105.324 14.8328 112.977 15.7365 120.562C16.6402 128.147 20.298 135.136 26.0153 140.202C31.7326 145.268 39.1112 148.058 46.75 148.042H132.458C141.803 148.016 150.828 144.632 157.886 138.507C164.943 132.382 169.564 123.924 170.906 114.676C172.247 105.427 170.22 96.0052 165.193 88.1273C160.166 80.2495 152.475 74.441 143.522 71.7613ZM132.458 132.458H46.75C42.617 132.458 38.6533 130.817 35.7309 127.894C32.8084 124.972 31.1666 121.008 31.1666 116.875C31.1666 112.742 32.8084 108.778 35.7309 105.856C38.6533 102.933 42.617 101.292 46.75 101.292C48.8164 101.292 50.7983 100.471 52.2595 99.0095C53.7207 97.5483 54.5416 95.5665 54.5416 93.5C54.5615 84.2846 57.8475 75.3747 63.8158 68.353C69.7841 61.3314 78.0482 56.6528 87.14 55.1484C96.2318 53.644 105.562 55.4113 113.474 60.1362C121.386 64.861 127.367 72.2376 130.355 80.9554C130.812 82.2798 131.617 83.4565 132.687 84.3615C133.756 85.2665 135.05 85.8664 136.432 86.0979C142.143 87.1518 147.258 90.294 150.779 94.9124C154.3 99.5308 155.976 105.295 155.48 111.081C154.984 116.868 152.352 122.262 148.096 126.214C143.84 130.166 138.266 132.392 132.458 132.458Z" fill="white"/>
</svg>
