<svg width="187" height="187" viewBox="0 0 187 187" fill="none" xmlns="http://www.w3.org/2000/svg">
<path d="M100.435 140.718C98.492 140.016 96.3503 140.114 94.4802 140.991C92.6101 141.867 91.1645 143.451 90.4612 145.393L84.7733 160.976C84.0715 162.918 84.1698 165.06 85.0464 166.93C85.923 168.8 87.5063 170.246 89.4483 170.949C90.2976 171.257 91.194 171.416 92.0975 171.417C93.6987 171.416 95.2609 170.922 96.5715 170.002C97.882 169.082 98.8772 167.78 99.4216 166.274L105.11 150.691C105.811 148.748 105.713 146.607 104.836 144.737C103.96 142.866 102.377 141.421 100.435 140.718ZM69.2679 140.718C67.3253 140.016 65.1837 140.114 63.3135 140.991C61.4434 141.867 59.9978 143.451 59.2945 145.393L53.6066 160.976C52.9049 162.918 53.0031 165.06 53.8797 166.93C54.7564 168.8 56.3396 170.246 58.2816 170.949C59.1309 171.257 60.0273 171.416 60.9308 171.417C62.5321 171.416 64.0943 170.922 65.4048 170.002C66.7153 169.082 67.7105 167.78 68.255 166.274L73.9429 150.691C74.6446 148.748 74.5464 146.607 73.6697 144.737C72.7931 142.866 71.2098 141.421 69.2679 140.718ZM69.2679 86.1759C67.3253 85.4741 65.1837 85.5724 63.3135 86.449C61.4434 87.3256 59.9978 88.9089 59.2945 90.8509L50.7237 114.226C50.2984 115.402 50.1626 116.664 50.3277 117.904C50.4929 119.144 50.9541 120.326 51.6725 121.35C52.3908 122.374 53.3452 123.21 54.4549 123.787C55.5646 124.364 56.797 124.666 58.0479 124.667C59.6492 124.666 61.2114 124.172 62.5219 123.252C63.8324 122.332 64.8276 121.03 65.372 119.524L73.9429 96.1492C74.6446 94.2067 74.5464 92.065 73.6697 90.1948C72.7931 88.3247 71.2098 86.8792 69.2679 86.1759ZM100.435 86.1759C98.492 85.4741 96.3503 85.5724 94.4802 86.449C92.6101 87.3256 91.1645 88.9089 90.4612 90.8509L81.8904 114.226C81.4651 115.402 81.3292 116.664 81.4944 117.904C81.6595 119.144 82.1208 120.326 82.8391 121.35C83.5575 122.374 84.5119 123.21 85.6216 123.787C86.7313 124.364 87.9636 124.666 89.2145 124.667C90.8158 124.666 92.378 124.172 93.6886 123.252C94.9991 122.332 95.9943 121.03 96.5387 119.524L105.11 96.1492C105.811 94.2067 105.713 92.065 104.836 90.1948C103.96 88.3247 102.377 86.8792 100.435 86.1759ZM143.522 48.4642C138.762 37.5247 130.545 28.448 120.132 22.6249C109.72 16.8018 97.6845 14.5535 85.8717 16.2247C74.0588 17.8958 63.1197 23.3941 54.7306 31.8771C46.3415 40.36 40.9653 51.3597 39.4258 63.1904C32.6269 64.8342 26.5786 68.7173 22.254 74.2149C17.9293 79.7126 15.5798 86.5052 15.5833 93.5C15.5694 97.9134 16.4929 102.279 18.2929 106.309C20.0928 110.339 22.728 113.94 26.0241 116.875C26.7827 117.604 27.6809 118.171 28.6647 118.543C29.6485 118.915 30.6974 119.085 31.7483 119.04C32.7992 118.996 33.8302 118.74 34.7794 118.287C35.7285 117.833 36.576 117.193 37.2709 116.403C37.9657 115.613 38.4935 114.691 38.8225 113.692C39.1514 112.693 39.2746 111.638 39.1848 110.59C39.0949 109.542 38.7938 108.523 38.2996 107.595C37.8053 106.666 37.1283 105.847 36.3091 105.188C34.6752 103.713 33.3722 101.909 32.4858 99.8947C31.5995 97.8802 31.1499 95.7008 31.1666 93.5C31.1666 89.3671 32.8084 85.4034 35.7309 82.4809C38.6533 79.5585 42.617 77.9167 46.75 77.9167C48.8164 77.9167 50.7983 77.0958 52.2595 75.6346C53.7207 74.1733 54.5416 72.1915 54.5416 70.125C54.5615 60.9096 57.8475 51.9997 63.8158 44.9781C69.7841 37.9564 78.0482 33.2778 87.14 31.7734C96.2318 30.2691 105.562 32.0363 113.474 36.7612C121.386 41.486 127.367 48.8626 130.355 57.5804C130.8 58.9193 131.601 60.1122 132.671 61.0316C133.741 61.951 135.041 62.5626 136.432 62.8008C141.841 63.7338 146.749 66.5403 150.296 70.7286C153.843 74.9169 155.803 80.2198 155.833 85.7084C155.952 91.4453 153.892 97.014 150.067 101.292C148.824 102.841 148.218 104.806 148.375 106.787C148.533 108.767 149.44 110.613 150.913 111.946C152.386 113.28 154.312 114 156.299 113.961C158.285 113.921 160.181 113.124 161.599 111.733C165.891 106.828 168.884 100.925 170.303 94.5649C171.723 88.2045 171.525 81.5894 169.726 75.3255C167.928 69.0615 164.587 63.3488 160.009 58.7105C155.431 54.0721 149.762 50.6563 143.522 48.7758V48.4642ZM131.601 140.718C129.659 140.016 127.517 140.114 125.647 140.991C123.777 141.867 122.331 143.451 121.628 145.393L115.94 160.976C115.238 162.918 115.336 165.06 116.213 166.93C117.09 168.8 118.673 170.246 120.615 170.949C121.464 171.257 122.361 171.416 123.264 171.417C124.865 171.416 126.428 170.922 127.738 170.002C129.049 169.082 130.044 167.78 130.588 166.274L136.276 150.691C136.978 148.748 136.88 146.607 136.003 144.737C135.126 142.866 133.543 141.421 131.601 140.718ZM131.601 86.1759C129.659 85.4741 127.517 85.5724 125.647 86.449C123.777 87.3256 122.331 88.9089 121.628 90.8509L113.057 114.226C112.632 115.402 112.496 116.664 112.661 117.904C112.826 119.144 113.287 120.326 114.006 121.35C114.724 122.374 115.679 123.21 116.788 123.787C117.898 124.364 119.13 124.666 120.381 124.667C121.982 124.666 123.545 124.172 124.855 123.252C126.166 122.332 127.161 121.03 127.705 119.524L136.276 96.1492C136.978 94.2067 136.88 92.065 136.003 90.1948C135.126 88.3247 133.543 86.8792 131.601 86.1759Z" fill="white"/>
</svg>
