<svg width="187" height="187" viewBox="0 0 187 187" fill="none" xmlns="http://www.w3.org/2000/svg">
<path d="M90.2275 128.562H80.41L87.1108 116.875C87.6746 115.988 88.0531 114.996 88.2237 113.96C88.3942 112.923 88.3533 111.862 88.1032 110.841C87.8532 109.821 87.3993 108.861 86.7689 108.02C86.1384 107.18 85.3444 106.475 84.4346 105.949C83.5248 105.423 82.518 105.087 81.4748 104.96C80.4317 104.833 79.3736 104.919 78.3644 105.212C77.3551 105.505 76.4156 105.999 75.6022 106.664C74.7888 107.329 74.1183 108.152 73.6312 109.083L60.1517 132.458C59.4697 133.639 59.1098 134.979 59.1077 136.342C59.1056 137.706 59.4615 139.047 60.1398 140.23C60.8182 141.413 61.7951 142.397 62.9731 143.084C64.151 143.772 65.4887 144.138 66.8525 144.146H76.7479L70.125 155.833C69.0917 157.631 68.815 159.766 69.3557 161.768C69.8963 163.77 71.2101 165.475 73.0079 166.508C74.8057 167.541 76.9404 167.818 78.9423 167.277C80.9441 166.737 82.6492 165.423 83.6825 163.625L97.1621 140.25C97.8459 139.065 98.2059 137.722 98.2059 136.354C98.2059 134.986 97.8459 133.643 97.1621 132.458C96.4626 131.246 95.4496 130.244 94.2293 129.559C93.0091 128.873 91.6267 128.529 90.2275 128.562ZM163.625 58.4375H157.392C156.586 54.9413 155.218 51.5992 153.34 48.542L157.703 44.1787C158.98 42.6882 159.647 40.7708 159.571 38.8098C159.495 36.8489 158.682 34.9887 157.295 33.601C155.907 32.2134 154.047 31.4005 152.086 31.3247C150.125 31.249 148.208 31.916 146.717 33.1925L142.354 37.5558C139.297 35.6781 135.954 34.3097 132.458 33.5041V27.2708C132.458 25.2043 131.637 23.2225 130.176 21.7613C128.715 20.3 126.733 19.4791 124.667 19.4791C122.6 19.4791 120.618 20.3 119.157 21.7613C117.696 23.2225 116.875 25.2043 116.875 27.2708V33.5041C113.379 34.3097 110.037 35.6781 106.98 37.5558L102.616 33.1925C101.126 31.916 99.2083 31.249 97.2474 31.3247C95.2864 31.4005 93.4262 32.2134 92.0386 33.601C90.6509 34.9887 89.838 36.8489 89.7622 38.8098C89.6865 40.7708 90.3535 42.6882 91.63 44.1787L95.9933 48.62C95.2921 49.7887 94.7467 51.1133 94.1233 52.36C90.1172 51.2291 85.9751 50.6524 81.8125 50.6458C70.5836 50.6394 59.7275 54.6749 51.2292 62.0143C42.7309 69.3538 37.1582 79.5068 35.53 90.6171C30.0112 92.1283 25.1098 95.3419 21.5234 99.8004C17.937 104.259 15.8485 109.735 15.555 115.45C15.2615 121.164 16.778 126.825 19.8888 131.628C22.9995 136.43 27.5459 140.129 32.8808 142.198C33.849 142.658 34.9017 142.913 35.973 142.948C37.0444 142.982 38.1113 142.796 39.1072 142.399C40.103 142.003 41.0064 141.405 41.7607 140.643C42.515 139.882 43.104 138.973 43.491 137.973C43.8779 136.973 44.0544 135.905 44.0095 134.834C43.9646 133.763 43.6992 132.713 43.2299 131.749C42.7606 130.785 42.0975 129.929 41.282 129.233C40.4666 128.537 39.5164 128.017 38.4908 127.705C35.9807 126.687 33.9021 124.829 32.6105 122.448C31.3189 120.067 30.8945 117.311 31.4098 114.652C31.9251 111.992 33.3481 109.594 35.4356 107.868C37.5231 106.142 40.1454 105.194 42.8542 105.187C44.9206 105.187 46.9025 104.367 48.3637 102.905C49.8249 101.444 50.6458 99.4623 50.6458 97.3958C50.6792 90.0381 53.3146 82.9295 58.0856 77.3281C62.8566 71.7268 69.4554 67.994 76.714 66.7904C83.9727 65.5869 91.4231 66.9902 97.7466 70.7519C104.07 74.5137 108.859 80.3914 111.265 87.3445C111.71 88.6835 112.511 89.8763 113.581 90.7957C114.652 91.7152 115.952 92.3267 117.342 92.565C121.374 93.2788 125.046 95.3343 127.762 98.3979C130.478 101.461 132.079 105.353 132.304 109.441C132.53 113.529 131.367 117.573 129.005 120.917C126.642 124.261 123.219 126.708 119.29 127.861C117.224 128.14 115.353 129.229 114.089 130.887C112.825 132.546 112.272 134.638 112.551 136.705C112.83 138.771 113.918 140.642 115.577 141.906C117.235 143.17 119.328 143.724 121.394 143.445C122.091 143.558 122.801 143.558 123.498 143.445C128.022 142.188 132.231 139.996 135.853 137.008C139.474 134.021 142.428 130.306 144.522 126.103C146.615 121.901 147.803 117.306 148.006 112.615C148.21 107.925 147.426 103.244 145.704 98.8762L146.717 99.8891C148.168 101.329 150.127 102.14 152.171 102.149C153.197 102.155 154.213 101.958 155.162 101.57C156.112 101.183 156.975 100.611 157.703 99.8891C159.155 98.4293 159.969 96.4545 159.969 94.396C159.969 92.3376 159.155 90.3627 157.703 88.9029L153.34 84.5396C155.282 81.2906 156.652 77.7328 157.392 74.0208H163.625C165.691 74.0208 167.673 73.1999 169.135 71.7387C170.596 70.2774 171.417 68.2956 171.417 66.2291C171.417 64.1627 170.596 62.1808 169.135 60.7196C167.673 59.2584 165.691 58.4375 163.625 58.4375ZM137.601 79.0854C136.223 80.3933 134.645 81.4719 132.926 82.28C130.397 80.4353 127.615 78.9657 124.667 77.9166C121.087 70.0997 115.46 63.3961 108.382 58.5154C109.251 56.5028 110.464 54.6571 111.966 53.0612C115.465 49.8249 120.056 48.0272 124.822 48.0272C129.589 48.0272 134.18 49.8249 137.679 53.0612C141.02 56.5066 142.889 61.1178 142.889 65.9175C142.889 70.7172 141.02 75.3283 137.679 78.7737L137.601 79.0854Z" fill="white"/>
</svg>
