<svg width="187" height="187" viewBox="0 0 187 187" fill="none" xmlns="http://www.w3.org/2000/svg">
<path d="M38.413 137.601C37.3186 138.689 36.5719 140.077 36.2675 141.59C35.9631 143.102 36.1147 144.671 36.7031 146.098C37.2915 147.524 38.2901 148.744 39.5724 149.602C40.8548 150.46 42.3631 150.918 43.9061 150.918C45.4491 150.918 46.9574 150.46 48.2397 149.602C49.5221 148.744 50.5207 147.524 51.1091 146.098C51.6974 144.671 51.849 143.102 51.5446 141.59C51.2402 140.077 50.4935 138.689 49.3992 137.601C47.9393 136.15 45.9645 135.335 43.9061 135.335C41.8476 135.335 39.8728 136.15 38.413 137.601ZM148.587 49.3992C149.681 48.3114 150.428 46.9231 150.733 45.4104C151.037 43.8977 150.885 42.3287 150.297 40.9023C149.709 39.4758 148.71 38.2562 147.428 37.398C146.145 36.5398 144.637 36.0816 143.094 36.0816C141.551 36.0816 140.043 36.5398 138.76 37.398C137.478 38.2562 136.479 39.4758 135.891 40.9023C135.303 42.3287 135.151 43.8977 135.455 45.4104C135.76 46.9231 136.507 48.3114 137.601 49.3992C139.061 50.8504 141.036 51.665 143.094 51.665C145.152 51.665 147.127 50.8504 148.587 49.3992ZM49.3992 49.3992C50.4935 48.3114 51.2402 46.9231 51.5446 45.4104C51.849 43.8977 51.6974 42.3287 51.1091 40.9023C50.5207 39.4758 49.5221 38.2562 48.2397 37.398C46.9574 36.5398 45.4491 36.0816 43.9061 36.0816C42.3631 36.0816 40.8548 36.5398 39.5724 37.398C38.2901 38.2562 37.2915 39.4758 36.7031 40.9023C36.1147 42.3287 35.9631 43.8977 36.2675 45.4104C36.5719 46.9231 37.3186 48.3114 38.413 49.3992C39.8728 50.8504 41.8476 51.665 43.9061 51.665C45.9645 51.665 47.9393 50.8504 49.3992 49.3992ZM137.601 137.601C136.507 138.689 135.76 140.077 135.455 141.59C135.151 143.102 135.303 144.671 135.891 146.098C136.479 147.524 137.478 148.744 138.76 149.602C140.043 150.46 141.551 150.918 143.094 150.918C144.637 150.918 146.145 150.46 147.428 149.602C148.71 148.744 149.709 147.524 150.297 146.098C150.885 144.671 151.037 143.102 150.733 141.59C150.428 140.077 149.681 138.689 148.587 137.601C147.127 136.15 145.152 135.335 143.094 135.335C141.036 135.335 139.061 136.15 137.601 137.601ZM163.625 85.7084H151.236L161.365 75.6571C162.092 74.9306 162.668 74.0682 163.061 73.119C163.455 72.1698 163.657 71.1524 163.657 70.125C163.657 69.0976 163.455 68.0803 163.061 67.1311C162.668 66.1819 162.092 65.3194 161.365 64.593C160.639 63.8665 159.777 63.2902 158.827 62.897C157.878 62.5039 156.861 62.3015 155.833 62.3015C154.806 62.3015 153.789 62.5039 152.839 62.897C151.89 63.2902 151.028 63.8665 150.301 64.593L129.264 85.7084H112.278L130.199 67.8655C130.925 67.139 131.502 66.2765 131.895 65.3273C132.288 64.3781 132.49 63.3608 132.49 62.3334C132.49 61.306 132.288 60.2886 131.895 59.3394C131.502 58.3902 130.925 57.5278 130.199 56.8013C129.472 56.0748 128.61 55.4985 127.661 55.1054C126.711 54.7122 125.694 54.5098 124.667 54.5098C123.639 54.5098 122.622 54.7122 121.673 55.1054C120.724 55.4985 119.861 56.0748 119.135 56.8013L101.292 74.7221V57.7363L122.407 36.6988C123.134 35.9723 123.71 35.1098 124.103 34.1607C124.496 33.2115 124.699 32.1941 124.699 31.1667C124.699 30.1393 124.496 29.122 124.103 28.1728C123.71 27.2236 123.134 26.3611 122.407 25.6346C121.681 24.9081 120.818 24.3319 119.869 23.9387C118.92 23.5455 117.902 23.3432 116.875 23.3432C114.8 23.3432 112.81 24.1674 111.343 25.6346L101.292 35.7638V23.375C101.292 21.3086 100.471 19.3267 99.0096 17.8655C97.5484 16.4043 95.5665 15.5834 93.5 15.5834C91.4336 15.5834 89.4517 16.4043 87.9905 17.8655C86.5293 19.3267 85.7084 21.3086 85.7084 23.375V35.7638L75.6571 25.6346C74.1899 24.1674 72.2 23.3432 70.125 23.3432C68.0501 23.3432 66.0602 24.1674 64.593 25.6346C63.1258 27.1018 62.3015 29.0918 62.3015 31.1667C62.3015 33.2416 63.1258 35.2316 64.593 36.6988L85.7084 57.7363V74.7221L67.8655 56.8013C67.139 56.0748 66.2765 55.4985 65.3273 55.1054C64.3781 54.7122 63.3608 54.5098 62.3334 54.5098C61.306 54.5098 60.2886 54.7122 59.3394 55.1054C58.3902 55.4985 57.5278 56.0748 56.8013 56.8013C56.0748 57.5278 55.4985 58.3902 55.1054 59.3394C54.7122 60.2886 54.5098 61.306 54.5098 62.3334C54.5098 63.3608 54.7122 64.3781 55.1054 65.3273C55.4985 66.2765 56.0748 67.139 56.8013 67.8655L74.7221 85.7084H57.7363L36.6988 64.593C35.2316 63.1258 33.2416 62.3015 31.1667 62.3015C29.0918 62.3015 27.1018 63.1258 25.6346 64.593C24.1674 66.0602 23.3432 68.0501 23.3432 70.125C23.3432 72.2 24.1674 74.1899 25.6346 75.6571L35.7638 85.7084H23.375C21.3086 85.7084 19.3267 86.5293 17.8655 87.9905C16.4043 89.4517 15.5834 91.4336 15.5834 93.5C15.5834 95.5665 16.4043 97.5484 17.8655 99.0096C19.3267 100.471 21.3086 101.292 23.375 101.292H35.7638L25.6346 111.343C24.9043 112.067 24.3247 112.929 23.9291 113.879C23.5335 114.828 23.3299 115.846 23.3299 116.875C23.3299 117.904 23.5335 118.922 23.9291 119.872C24.3247 120.821 24.9043 121.683 25.6346 122.407C26.359 123.137 27.2207 123.717 28.1702 124.113C29.1197 124.508 30.1381 124.712 31.1667 124.712C32.1953 124.712 33.2137 124.508 34.1632 124.113C35.1127 123.717 35.9745 123.137 36.6988 122.407L57.7363 101.292H74.7221L56.8013 119.135C56.071 119.859 55.4913 120.721 55.0958 121.67C54.7002 122.62 54.4965 123.638 54.4965 124.667C54.4965 125.695 54.7002 126.714 55.0958 127.663C55.4913 128.613 56.071 129.474 56.8013 130.199C57.5256 130.929 58.3874 131.509 59.3369 131.904C60.2864 132.3 61.3048 132.504 62.3334 132.504C63.362 132.504 64.3804 132.3 65.3299 131.904C66.2794 131.509 67.1411 130.929 67.8655 130.199L85.7084 112.278V129.264L64.593 150.301C63.1258 151.769 62.3015 153.758 62.3015 155.833C62.3015 157.908 63.1258 159.898 64.593 161.365C66.0602 162.833 68.0501 163.657 70.125 163.657C72.2 163.657 74.1899 162.833 75.6571 161.365L85.7084 151.236V163.625C85.7084 165.692 86.5293 167.673 87.9905 169.135C89.4517 170.596 91.4336 171.417 93.5 171.417C95.5665 171.417 97.5484 170.596 99.0096 169.135C100.471 167.673 101.292 165.692 101.292 163.625V151.236L111.343 161.365C112.067 162.096 112.929 162.675 113.879 163.071C114.828 163.467 115.846 163.67 116.875 163.67C117.904 163.67 118.922 163.467 119.872 163.071C120.821 162.675 121.683 162.096 122.407 161.365C123.137 160.641 123.717 159.779 124.113 158.83C124.508 157.88 124.712 156.862 124.712 155.833C124.712 154.805 124.508 153.786 124.113 152.837C123.717 151.887 123.137 151.026 122.407 150.301L101.292 129.264V112.278L119.135 130.199C119.859 130.929 120.721 131.509 121.67 131.904C122.62 132.3 123.638 132.504 124.667 132.504C125.695 132.504 126.714 132.3 127.663 131.904C128.613 131.509 129.474 130.929 130.199 130.199C130.929 129.474 131.509 128.613 131.904 127.663C132.3 126.714 132.504 125.695 132.504 124.667C132.504 123.638 132.3 122.62 131.904 121.67C131.509 120.721 130.929 119.859 130.199 119.135L112.278 101.292H129.264L150.301 122.407C151.026 123.137 151.887 123.717 152.837 124.113C153.786 124.508 154.805 124.712 155.833 124.712C156.862 124.712 157.88 124.508 158.83 124.113C159.779 123.717 160.641 123.137 161.365 122.407C162.096 121.683 162.675 120.821 163.071 119.872C163.467 118.922 163.67 117.904 163.67 116.875C163.67 115.846 163.467 114.828 163.071 113.879C162.675 112.929 162.096 112.067 161.365 111.343L151.236 101.292H163.625C165.692 101.292 167.673 100.471 169.135 99.0096C170.596 97.5484 171.417 95.5665 171.417 93.5C171.417 91.4336 170.596 89.4517 169.135 87.9905C167.673 86.5293 165.692 85.7084 163.625 85.7084Z" fill="white"/>
</svg>
