<svg width="187" height="187" viewBox="0 0 187 187" fill="none" xmlns="http://www.w3.org/2000/svg">
<path d="M163.625 70.125H157.392C156.586 66.6288 155.218 63.2867 153.34 60.2295L157.703 55.8662C158.98 54.3757 159.647 52.4583 159.571 50.4973C159.495 48.5364 158.682 46.6762 157.295 45.2885C155.907 43.9009 154.047 43.0879 152.086 43.0122C150.125 42.9365 148.208 43.6035 146.717 44.88L142.354 49.2433C139.297 47.3656 135.955 45.9972 132.458 45.1916V38.9583C132.458 36.8918 131.637 34.91 130.176 33.4488C128.715 31.9875 126.733 31.1666 124.667 31.1666C122.6 31.1666 120.618 31.9875 119.157 33.4488C117.696 34.91 116.875 36.8918 116.875 38.9583V45.1916C113.399 45.9849 110.081 47.3544 107.058 49.2433L102.616 44.88C101.126 43.6035 99.2084 42.9365 97.2474 43.0122C95.2864 43.0879 93.4262 43.9009 92.0386 45.2885C90.6509 46.6762 89.838 48.5364 89.7623 50.4973C89.6865 52.4583 90.3535 54.3757 91.63 55.8662L95.9933 60.3075C95.2921 61.4762 94.7467 62.8008 94.1233 64.0475C90.1172 62.9166 85.9751 62.3399 81.8125 62.3333C70.5836 62.3269 59.7275 66.3624 51.2292 73.7018C42.7309 81.0412 37.1582 91.1943 35.53 102.305C29.1891 104.083 23.7058 108.095 20.0929 113.601C16.48 119.107 14.9815 125.735 15.8742 132.259C16.767 138.784 19.9907 144.765 24.9498 149.099C29.909 153.432 36.2687 155.824 42.8542 155.833H114.304C123.252 155.833 131.833 152.279 138.16 145.952C144.487 139.625 148.042 131.043 148.042 122.095C148.035 117.958 147.242 113.859 145.704 110.018L146.717 110.953C148.168 112.393 150.127 113.204 152.171 113.213C153.197 113.219 154.213 113.022 155.163 112.635C156.112 112.247 156.975 111.675 157.703 110.953C159.155 109.493 159.969 107.519 159.969 105.46C159.969 103.402 159.155 101.427 157.703 99.967L153.34 95.6037C155.218 92.5465 156.586 89.2045 157.392 85.7083H163.625C165.691 85.7083 167.673 84.8874 169.135 83.4262C170.596 81.9649 171.417 79.9831 171.417 77.9166C171.417 75.8501 170.596 73.8683 169.135 72.4071C167.673 70.9459 165.691 70.125 163.625 70.125ZM114.304 140.25H42.8542C39.7545 140.25 36.7817 139.019 34.5899 136.827C32.398 134.635 31.1667 131.662 31.1667 128.562C31.1667 125.463 32.398 122.49 34.5899 120.298C36.7817 118.106 39.7545 116.875 42.8542 116.875C44.9206 116.875 46.9025 116.054 48.3637 114.593C49.8249 113.132 50.6458 111.15 50.6458 109.083C50.6792 101.726 53.3147 94.6169 58.0856 89.0156C62.8566 83.4143 69.4554 79.6815 76.7141 78.4779C83.9727 77.2744 91.4231 78.6777 97.7466 82.4394C104.07 86.2012 108.859 92.0789 111.265 99.032C111.71 100.371 112.511 101.564 113.581 102.483C114.652 103.403 115.952 104.014 117.343 104.252C121.765 105.079 125.723 107.519 128.449 111.098C131.175 114.678 132.475 119.142 132.096 123.625C131.718 128.108 129.688 132.291 126.401 135.363C123.113 138.435 118.802 140.176 114.304 140.25ZM137.679 90.7729C136.305 92.0652 134.725 93.1187 133.004 93.8895C130.413 92.2023 127.609 90.8661 124.667 89.9158C121.087 82.0989 115.46 75.3953 108.382 70.5145C109.233 68.5159 110.449 66.6928 111.966 65.1383C115.452 61.9073 120.03 60.1121 124.784 60.1121C129.537 60.1121 134.115 61.9073 137.601 65.1383C140.942 68.5837 142.811 73.1948 142.811 77.9945C142.811 82.7942 140.942 87.4053 137.601 90.8508L137.679 90.7729Z" fill="white"/>
</svg>
