<svg width="187" height="187" viewBox="0 0 187 187" fill="none" xmlns="http://www.w3.org/2000/svg">
<path d="M38.9583 93.5C38.9583 91.4336 38.1373 89.4517 36.6761 87.9905C35.2149 86.5293 33.2331 85.7084 31.1666 85.7084H23.3749C21.3084 85.7084 19.3266 86.5293 17.8654 87.9905C16.4042 89.4517 15.5833 91.4336 15.5833 93.5C15.5833 95.5665 16.4042 97.5484 17.8654 99.0096C19.3266 100.471 21.3084 101.292 23.3749 101.292H31.1666C33.2331 101.292 35.2149 100.471 36.6761 99.0096C38.1373 97.5484 38.9583 95.5665 38.9583 93.5ZM43.9449 132.458L38.4128 137.99C36.9616 139.45 36.1471 141.425 36.1471 143.484C36.1471 145.542 36.9616 147.517 38.4128 148.977C39.8727 150.428 41.8475 151.242 43.906 151.242C45.9644 151.242 47.9392 150.428 49.3991 148.977L54.9312 143.445C56.2077 141.954 56.8747 140.037 56.7989 138.076C56.7232 136.115 55.9103 134.255 54.5226 132.867C53.1349 131.479 51.2748 130.666 49.3138 130.591C47.3528 130.515 45.4355 131.182 43.9449 132.458ZM93.4999 38.9584C95.5664 38.9584 97.5482 38.1375 99.0095 36.6762C100.471 35.215 101.292 33.2332 101.292 31.1667V23.375C101.292 21.3086 100.471 19.3267 99.0095 17.8655C97.5482 16.4043 95.5664 15.5834 93.4999 15.5834C91.4334 15.5834 89.4516 16.4043 87.9904 17.8655C86.5292 19.3267 85.7083 21.3086 85.7083 23.375V31.1667C85.7083 33.2332 86.5292 35.215 87.9904 36.6762C89.4516 38.1375 91.4334 38.9584 93.4999 38.9584ZM137.601 57.1909C139.645 57.1823 141.604 56.3708 143.055 54.9313L148.587 49.3992C149.403 48.7007 150.065 47.8411 150.533 46.8745C151 45.9078 151.263 44.8549 151.305 43.7818C151.346 42.7088 151.165 41.6387 150.774 40.6389C150.382 39.639 149.788 38.7309 149.028 37.9716C148.269 37.2122 147.361 36.618 146.361 36.2263C145.361 35.8346 144.291 35.6538 143.218 35.6952C142.145 35.7367 141.092 35.9995 140.125 36.4672C139.159 36.9349 138.299 37.5973 137.601 38.413L132.458 43.945C131.007 45.4049 130.192 47.3797 130.192 49.4382C130.192 51.4966 131.007 53.4714 132.458 54.9313C133.832 56.2977 135.665 57.1032 137.601 57.1909ZM44.1008 54.9313C45.552 56.3708 47.5109 57.1823 49.5549 57.1909C50.5804 57.1968 51.5969 57.0003 52.5462 56.6125C53.4955 56.2248 54.359 55.6534 55.087 54.9313C56.5382 53.4714 57.3528 51.4966 57.3528 49.4382C57.3528 47.3797 56.5382 45.4049 55.087 43.945L49.5549 38.413C48.8336 37.6814 47.9751 37.099 47.0287 36.6992C46.0823 36.2993 45.0664 36.0898 44.039 36.0825C43.0116 36.0753 41.9928 36.2705 41.0408 36.657C40.0889 37.0435 39.2224 37.6137 38.4908 38.335C37.7592 39.0564 37.1768 39.9148 36.7769 40.8612C36.3771 41.8077 36.1676 42.8236 36.1603 43.851C36.1457 45.9259 36.956 47.9217 38.4128 49.3992L44.1008 54.9313ZM163.625 85.7084H155.833C153.767 85.7084 151.785 86.5293 150.324 87.9905C148.862 89.4517 148.042 91.4336 148.042 93.5C148.042 95.5665 148.862 97.5484 150.324 99.0096C151.785 100.471 153.767 101.292 155.833 101.292H163.625C165.691 101.292 167.673 100.471 169.134 99.0096C170.596 97.5484 171.417 95.5665 171.417 93.5C171.417 91.4336 170.596 89.4517 169.134 87.9905C167.673 86.5293 165.691 85.7084 163.625 85.7084ZM143.055 132.458C141.575 131.635 139.866 131.316 138.189 131.551C136.511 131.785 134.956 132.56 133.758 133.758C132.56 134.956 131.785 136.511 131.551 138.189C131.316 139.866 131.635 141.575 132.458 143.055L137.99 148.587C139.45 150.038 141.425 150.853 143.483 150.853C145.542 150.853 147.517 150.038 148.977 148.587C150.428 147.127 151.242 145.152 151.242 143.094C151.242 141.036 150.428 139.061 148.977 137.601L143.055 132.458ZM93.4999 50.6459C85.0242 50.6459 76.7388 53.1592 69.6914 57.8681C62.6441 62.577 57.1514 69.2699 53.9078 77.1005C50.6643 84.931 49.8156 93.5476 51.4692 101.86C53.1227 110.173 57.2042 117.809 63.1974 123.803C69.1907 129.796 76.8266 133.877 85.1395 135.531C93.4524 137.184 102.069 136.336 109.9 133.092C117.73 129.849 124.423 124.356 129.132 117.309C133.841 110.261 136.354 101.976 136.354 93.5C136.333 82.1407 131.812 71.2526 123.78 63.2203C115.747 55.1881 104.859 50.6665 93.4999 50.6459ZM93.4999 120.771C88.1063 120.771 82.8337 119.171 78.3491 116.175C73.8644 113.178 70.369 108.919 68.305 103.936C66.2409 98.953 65.7008 93.4698 66.7531 88.1798C67.8053 82.8897 70.4026 78.0305 74.2165 74.2167C78.0304 70.4028 82.8896 67.8055 88.1796 66.7532C93.4697 65.701 98.9529 66.241 103.936 68.3051C108.919 70.3691 113.178 73.8645 116.175 78.3492C119.171 82.8338 120.771 88.1064 120.771 93.5C120.771 100.733 117.898 107.669 112.783 112.783C107.669 117.898 100.733 120.771 93.4999 120.771ZM93.4999 148.042C91.4334 148.042 89.4516 148.863 87.9904 150.324C86.5292 151.785 85.7083 153.767 85.7083 155.833V163.625C85.7083 165.692 86.5292 167.673 87.9904 169.135C89.4516 170.596 91.4334 171.417 93.4999 171.417C95.5664 171.417 97.5482 170.596 99.0095 169.135C100.471 167.673 101.292 165.692 101.292 163.625V155.833C101.292 153.767 100.471 151.785 99.0095 150.324C97.5482 148.863 95.5664 148.042 93.4999 148.042Z" fill="white"/>
</svg>
