<svg width="187" height="187" viewBox="0 0 187 187" fill="none" xmlns="http://www.w3.org/2000/svg">
<path d="M169.079 62.3334C168.133 61.3986 166.963 60.7216 165.681 60.367C164.399 60.0124 163.047 59.9919 161.755 60.3075C160.095 60.6995 158.396 60.9085 156.69 60.9309C150.491 60.9309 144.546 58.4681 140.162 54.0845C135.778 49.7008 133.315 43.7553 133.315 37.5559C133.335 35.8241 133.544 34.0997 133.939 32.4134C134.254 31.1211 134.234 29.7696 133.879 28.4876C133.525 27.2055 132.848 26.0356 131.913 25.0892C130.99 24.1398 129.84 23.4413 128.572 23.0596C127.305 22.6779 125.96 22.6255 124.667 22.9075C116.936 24.6968 109.936 28.8042 104.603 34.6802C99.2696 40.5562 95.8582 47.9207 94.8246 55.7884C90.6002 54.5406 86.2174 53.9108 81.8126 53.9184C70.6413 53.898 59.8321 57.8785 51.3422 65.1393C42.8522 72.4 37.243 82.4609 35.5301 93.5C29.7434 95.1401 24.6563 98.6369 21.0521 103.452C17.4479 108.267 15.5263 114.133 15.5834 120.148C15.5863 124.378 16.5818 128.549 18.4899 132.324C20.398 136.1 23.1654 139.375 26.5696 141.886C27.3871 142.567 28.3353 143.074 29.356 143.375C30.3767 143.675 31.4482 143.764 32.5044 143.635C33.5606 143.505 34.5791 143.161 35.4972 142.623C36.4152 142.085 37.2134 141.365 37.8424 140.507C38.4714 139.648 38.918 138.671 39.1546 137.633C39.3912 136.596 39.4127 135.521 39.218 134.475C39.0232 133.429 38.6163 132.433 38.0222 131.551C37.4281 130.668 36.6595 129.916 35.7638 129.342C34.3297 128.278 33.1662 126.891 32.3676 125.293C31.5689 123.696 31.1575 121.933 31.1667 120.148C31.1667 117.048 32.3981 114.075 34.5899 111.883C36.7817 109.691 39.7545 108.46 42.8542 108.46C44.9207 108.46 46.9025 107.639 48.3638 106.178C49.825 104.717 50.6459 102.735 50.6459 100.668C50.6602 95.0726 52.1808 89.5838 55.048 84.7784C57.9153 79.973 62.0234 76.0282 66.9411 73.3581C71.8588 70.688 77.4047 69.3912 82.9965 69.6038C88.5883 69.8164 94.0197 71.5305 98.7205 74.5663V74.5663C104.424 78.2483 108.731 83.7345 110.953 90.1496C111.41 91.474 112.216 92.6507 113.286 93.5557C114.355 94.4607 115.649 95.0605 117.031 95.2921C120.905 95.9309 124.467 97.8083 127.183 100.643C129.9 103.477 131.625 107.116 132.099 111.013C132.573 114.91 131.77 118.856 129.812 122.259C127.854 125.662 124.846 128.338 121.238 129.887C120.295 130.294 119.441 130.883 118.726 131.621C118.011 132.359 117.449 133.231 117.073 134.187C116.696 135.143 116.512 136.164 116.532 137.191C116.552 138.218 116.774 139.231 117.187 140.172C117.795 141.566 118.798 142.751 120.072 143.582C121.345 144.413 122.834 144.852 124.355 144.847C125.431 144.831 126.492 144.592 127.472 144.146C133.53 141.506 138.679 137.145 142.28 131.604C145.882 126.064 147.777 119.587 147.73 112.979C147.76 107.55 146.449 102.197 143.912 97.3959C150.574 95.634 156.64 92.1161 161.478 87.2095C166.317 82.3029 169.749 76.1875 171.417 69.5017C171.666 68.2067 171.582 66.8697 171.173 65.616C170.764 64.3622 170.044 63.2328 169.079 62.3334ZM133.315 84.3059C132.226 84.3902 131.132 84.3902 130.043 84.3059C128.245 83.3426 126.368 82.5345 124.433 81.8904C121.265 74.8768 116.389 68.7691 110.252 64.1254C110.252 63.1904 110.252 62.1775 110.252 61.2425C110.252 57.8662 110.983 54.53 112.395 51.4632C113.808 48.3965 115.868 45.6721 118.433 43.4775C119.655 51.776 123.523 59.4584 129.461 65.3826C135.399 71.3067 143.091 75.1561 151.392 76.3584C149.134 78.9077 146.347 80.9329 143.224 82.2922C140.102 83.6515 136.72 84.3122 133.315 84.2279V84.3059ZM97.3959 131.835H91.3963L94.4351 126.615C95.4683 124.817 95.745 122.682 95.2044 120.68C94.6637 118.678 93.35 116.973 91.5521 115.94C89.7543 114.907 87.6196 114.63 85.6178 115.171C83.6159 115.711 81.9108 117.025 80.8776 118.823L77.9167 124.043L74.9559 118.823C73.9226 117.025 72.2175 115.711 70.2157 115.171C68.2138 114.63 66.0791 114.907 64.2813 115.94C62.4835 116.973 61.1697 118.678 60.6291 120.68C60.0884 122.682 60.3651 124.817 61.3984 126.615L64.4371 131.835H58.4376C56.3711 131.835 54.3892 132.656 52.928 134.117C51.4668 135.578 50.6459 137.56 50.6459 139.627C50.6459 141.693 51.4668 143.675 52.928 145.136C54.3892 146.597 56.3711 147.418 58.4376 147.418H64.4371L61.3984 152.561C60.3651 154.359 60.0884 156.493 60.6291 158.495C61.1697 160.497 62.4835 162.202 64.2813 163.235C66.0791 164.269 68.2138 164.545 70.2157 164.005C72.2175 163.464 73.9226 162.15 74.9559 160.353L77.9167 155.21L80.8776 160.353C81.3892 161.243 82.0711 162.023 82.8844 162.65C83.6978 163.277 84.6265 163.737 85.6178 164.005C86.609 164.272 87.6432 164.342 88.6615 164.21C89.6797 164.078 90.6619 163.747 91.5521 163.235C92.4423 162.724 93.223 162.042 93.8497 161.229C94.4763 160.415 94.9367 159.486 95.2044 158.495C95.4721 157.504 95.5419 156.47 95.4099 155.452C95.2779 154.433 94.9467 153.451 94.4351 152.561L91.3963 147.418H97.3959C99.4624 147.418 101.444 146.597 102.905 145.136C104.367 143.675 105.188 141.693 105.188 139.627C105.188 137.56 104.367 135.578 102.905 134.117C101.444 132.656 99.4624 131.835 97.3959 131.835Z" fill="#219EBC"/>
</svg>
